<svg width="1400" height="260" viewBox="0 0 1400 260" fill="none" xmlns="http://www.w3.org/2000/svg">
<path fill-rule="evenodd" clip-rule="evenodd" d="M305.767 3.91737C298.76 10.9184 301.571 28.1991 310.265 31.5368C321.089 35.6854 333.783 20.6062 329.297 8.92403C325.764 -0.296259 312.744 -3.0659 305.767 3.91737ZM1362.33 66.252C1351.68 76.9044 1353.77 93.4631 1366.64 100.346C1388.75 112.182 1408.26 92.6701 1396.42 70.5603C1389.54 57.6886 1372.98 55.5995 1362.33 66.252ZM1390.99 74.2413C1397.27 81.8164 1396.9 85.1127 1388.89 93.1258C1383.55 98.4638 1377.12 100.63 1374.6 97.9371C1372.08 95.2444 1373.36 91.8475 1377.42 90.3975C1387.85 86.6692 1386.65 70.9864 1375.94 70.9864C1371.06 70.9864 1367.06 75.4249 1367.06 80.8518C1367.06 86.2727 1365.4 89.0541 1363.37 87.0243C1357.43 81.0826 1365.93 65.0684 1375.03 65.0684C1379.62 65.0684 1386.8 69.1992 1390.99 74.2413ZM108.992 144.713C93.0373 185.264 78.4139 216.552 76.4846 214.25C74.5613 211.948 60.2219 180.103 44.616 143.482C28.1225 104.767 12.848 76.9044 8.12546 76.9044C3.65735 76.9044 0 78.0762 0 79.5024C0 85.1838 71.8153 251.693 76.1177 255.996C78.6506 258.529 94.0671 226.944 110.377 185.808L140.026 111.01L168.688 181.251C184.447 219.878 199.171 253.64 201.402 256.274C203.633 258.908 219.547 228.282 236.763 188.217C289.593 65.2933 286.042 75.6498 274.579 77.8927C268.081 79.1651 254.256 103.885 235.508 147.749C219.547 185.086 205.734 216.392 204.805 217.316C203.876 218.245 190.04 185.707 174.055 145.009C158.071 104.311 143.418 71.0101 141.494 71.0041C139.571 70.9923 124.947 104.163 108.992 144.713ZM389.11 82.6745C375.807 93.1731 372.836 93.8182 372.836 86.2135C372.836 80.8518 367.817 76.9044 361 76.9044C349.69 76.9044 349.164 80.8518 349.164 165.675C349.164 250.498 349.69 254.445 361 254.445C372.09 254.445 372.836 250.498 372.836 192.01C372.836 108.341 382.861 88.7405 425.666 88.7405C456.31 88.7405 461.606 102.541 461.606 182.417C461.606 250.498 462.257 254.445 473.442 254.445C484.48 254.445 485.267 250.545 485.136 196.745C484.983 132.984 478.822 97.4992 465.613 84.2901C460.825 79.5025 445.314 74.2946 431.146 72.7086C410.794 70.436 401.97 72.5251 389.11 82.6745ZM550.797 81.3548C520.307 96.9015 507.098 118.834 504.536 158.2C501.571 203.621 515.046 228.945 552.093 247.598C573.812 258.529 584.707 260.6 603.633 257.404C632.732 252.486 674.809 216.724 664.098 206.012C659.168 201.082 653.031 204.071 640.431 217.564C618.251 241.307 588.43 247.178 559.567 233.484C537.381 222.955 520.787 199.135 520.787 177.807C520.787 166.196 524.107 165.675 598.496 165.675H676.206L672.833 144.903C663.346 86.4561 602.716 54.8775 550.797 81.3548ZM713.921 83.2545C702.748 92.0368 698.328 101.009 698.328 114.886C698.328 137.576 707.974 147.507 748.631 166.687C776.83 179.991 778.221 181.754 778.221 204.148C778.221 224.104 775.7 228.862 761.503 235.667C741.322 245.343 712.691 236.218 707.003 218.298C703.322 206.71 689.628 203.16 683.964 212.321C678.396 221.328 703.535 247.373 724.456 254.28C763.361 267.122 801.301 242.432 801.301 204.272C801.301 178.564 787.725 163.621 747.737 145.311C721.414 133.262 716.082 128.255 716.082 115.573C716.082 92.5399 741.008 82.8876 764.97 96.6411C789.157 110.519 799.171 100.358 777.842 83.5859C757.585 67.6486 733.919 67.5244 713.921 83.2545ZM858.659 83.7753C825.713 106.388 814.996 125.326 814.996 160.958C814.996 213.327 841.899 248.646 888.426 257.375C911.311 261.665 943.186 251.38 960.437 234.129C969.983 224.583 970.557 224.867 970.557 239.23C970.557 248.811 973.847 254.445 979.434 254.445C986.932 254.445 988.311 240.639 988.311 165.675C988.311 90.7112 986.932 76.9044 979.434 76.9044C974.457 76.9044 970.557 82.1833 970.557 88.918C970.557 100.801 970.367 100.79 953.182 88.0836C926.645 68.4653 883.81 66.5124 858.659 83.7753ZM1203.79 81.8282C1128.85 128.971 1146.38 243.118 1230.75 257.369C1269.36 263.896 1329.83 228.246 1316.56 206.782C1314.41 203.302 1304.32 208.291 1292.51 218.653C1266.49 241.491 1247.61 246.048 1220.97 235.916C1197.67 227.045 1180.88 207.243 1175.2 181.949L1171.55 165.675H1251.95C1325.75 165.675 1332.1 164.823 1329.28 155.318C1327.59 149.619 1324.53 137.961 1322.5 129.397C1320.46 120.84 1309.83 105.151 1298.88 94.5342C1273.22 69.6608 1231.91 64.1392 1203.79 81.8282ZM307.738 165.675C307.738 240.639 309.116 254.445 316.615 254.445C324.113 254.445 325.492 240.639 325.492 165.675C325.492 90.7112 324.113 76.9044 316.615 76.9044C309.116 76.9044 307.738 90.7112 307.738 165.675ZM1006.07 78.4195C1006.07 82.1005 1074.39 238.845 1081.65 251.824C1087.79 262.802 1088.34 262.648 1093.78 248.527C1096.92 240.39 1114.49 199.408 1132.83 157.449C1151.17 115.496 1164.88 79.8812 1163.31 78.307C1154.65 69.6489 1142.19 88.8115 1116.29 150.596C1100.42 188.453 1086.67 218.653 1085.75 217.706C1084.82 216.753 1070.73 185.352 1054.44 147.921C1036.84 107.465 1021.02 79.0882 1015.45 77.9519C1010.28 76.8985 1006.07 77.1116 1006.07 78.4195ZM621.588 97.7181C636.117 105.234 656.901 132.865 656.901 144.666C656.901 146.459 626.276 147.921 588.844 147.921C551.412 147.921 520.787 146.459 520.787 144.666C520.787 142.879 524.817 133.623 529.741 124.107C546.424 91.8415 587.436 80.0587 621.588 97.7181ZM935.244 97.7181C960.248 110.649 972.468 137.771 969.101 172.848C960.058 266.926 834.442 260.488 834.442 165.947C834.442 106.08 885.106 71.7913 935.244 97.7181ZM1291.61 112.14C1320.78 144.784 1316.22 147.921 1239.67 147.921H1171.47L1179.89 131.634C1196.61 99.2924 1216.91 87.9416 1251.66 91.5042C1268.78 93.2559 1279.84 98.9728 1291.61 112.14Z" fill="#8F8E8C"/>
</svg>
