<svg width="1400" height="658" viewBox="0 0 1400 658" fill="none" xmlns="http://www.w3.org/2000/svg">
<path fill-rule="evenodd" clip-rule="evenodd" d="M31.9955 10.5913C-1.36258 86.2279 -9.80881 192.648 12.2166 259.814C20.032 283.649 30.1107 301.12 44.8857 316.447C54.4833 326.402 63.5111 332.865 86.1675 345.997C94.8424 351.025 104.602 356.983 107.855 359.237C116.59 365.288 116.602 365.294 115.411 363.068C113.636 359.753 105.677 353.045 96.7578 347.347C73.3522 332.396 64.146 324.995 53.1357 312.274C29.1761 284.593 15.1819 251.519 10.6808 211.938C9.18141 198.759 10.0361 154.285 12.1299 136.508C15.2706 109.843 18.9683 89.2247 24.679 66.5348C30.4015 43.8015 42.3453 9.82241 44.5929 9.88254C47.9879 9.97422 134.842 5.45734 134.586 5.20301C134.297 4.9122 44.4775 0.0108613 39.2381 1.76026e-05C36.9175 -0.00491134 36.2166 1.01932 31.9955 10.5913ZM910.779 2.60447C882.479 5.17738 858.132 17.1379 837.144 38.7809C832.33 43.7444 827.218 49.247 825.781 51.0086C824.346 52.7712 822.921 54.2124 822.615 54.2124C822.309 54.2124 822.058 44.0095 822.058 31.5393V8.86619H805.3H788.541V140.469V272.072H805.3H822.058L822.08 218.1C822.115 130.22 823.621 111.015 832.096 90.3021C837.746 76.4942 851.643 59.2961 864.94 49.6551C878.603 39.749 896.462 34.2502 914.722 34.3261C945.414 34.4553 965.61 47.6491 975.55 74.0652C982.116 91.5127 982.02 89.9591 982.46 185.569L982.859 272.072H1000.05H1017.24L1017.24 193.455C1017.24 115.848 1016.79 101.616 1013.76 83.7861C1008.5 52.8333 994.011 30.0675 970.576 15.9333C962.28 10.9294 950.537 6.20457 942.324 4.56619C934.342 2.97414 917.941 1.95385 910.779 2.60447ZM1164.04 3.01456C1141.77 5.12611 1118.18 13.9322 1101.48 26.3659C1074.88 46.1694 1054.61 77.9808 1047.32 111.388C1044.84 122.705 1044.21 150.901 1046.16 163.151C1052.28 201.713 1075.09 238.255 1105.66 258.457C1132.3 276.062 1171.12 282.779 1209.47 276.418C1243.01 270.856 1272.96 251.67 1293.58 222.545C1300.42 212.879 1307.48 200.119 1306.48 199.23C1305.99 198.791 1299.49 195.244 1292.05 191.349L1278.51 184.266L1273.91 191.448C1256.65 218.396 1241.14 231.569 1216.37 240.3C1202.8 245.086 1192.78 246.792 1178.42 246.761C1147.91 246.696 1124.85 236.099 1104.54 212.814C1091.22 197.54 1082.32 175.402 1080.51 153.038L1079.77 143.919H1198H1316.23L1315.55 133.49C1314.15 111.734 1309.75 93.9387 1301.69 77.3784C1292.21 57.9013 1277.6 40.1926 1260.44 27.4039C1250.97 20.3516 1231.83 10.8141 1221.3 7.90604C1204.72 3.32804 1181.58 1.35153 1164.04 3.01456ZM232.111 6.40172C245.988 52.9822 254.256 110.163 255.843 170.535C257.218 222.865 251.554 258.246 237.377 285.873C223.703 312.522 201.127 331.906 155.419 356.243L144.822 361.886V489.514V617.142L148.997 621.67C155.302 628.511 180.362 640.068 204.112 647.089L212.348 649.524L207.419 649.594C204.708 649.633 174.1 650.313 139.4 651.105C104.7 651.898 70.2106 652.554 62.755 652.565L49.2005 652.586V655.05V657.515H140.769C226.683 657.515 232.471 657.407 234.479 655.781C237.11 653.65 236.396 651.192 232.732 649.77C231.28 649.206 224.008 647.16 216.572 645.222C184.399 636.835 159.045 626.391 150.77 618.117C148.797 616.143 148.765 615.137 148.75 554.253C148.733 485.45 150.347 393.955 151.732 385.13C152.227 381.978 153.643 377.374 154.879 374.9C157.153 370.347 163.314 364.163 167.612 362.119C189.68 351.633 197.741 347.132 206.927 340.172C215.703 333.521 217.427 332.564 218.263 333.885C226.329 346.633 238.931 359.828 251.481 368.668L258.084 373.318L250.002 375.481C201.802 388.379 165.603 428.559 157.106 478.594C154.867 491.78 154.876 514.789 157.125 527.883C163.718 566.254 184.547 598.234 217.164 620.063C233.646 631.093 251.208 638.396 271.989 642.862C286.678 646.018 314.584 646.045 331.313 642.917C363.795 636.845 390.122 623.384 411.527 601.904C435.804 577.543 448.992 549.48 451.015 517.875C452.416 495.995 445.897 469.826 432.352 442.958L428.988 436.286L445.371 427.285C503.354 395.424 519.609 379.897 525.819 350.442C527.72 341.423 527.705 322.678 525.789 314.552C521.492 296.32 507.7 282.171 491.064 278.928C476.243 276.038 462.875 280.1 453.52 290.335C447.24 297.207 444.501 304.255 444.501 313.544C444.501 324.017 447.839 330.354 455.345 334.134C462.991 337.982 473.495 337.342 479.646 332.651C483.789 329.491 487.554 321.511 488.867 313.104C490.576 302.16 493.198 298.688 499.757 298.688C503.841 298.688 509.908 304.596 511.422 310.047C518.21 334.5 493.013 359.436 425.771 394.809C392.377 412.377 363.458 429.496 344.937 442.658C321.848 459.069 311.75 471.108 305.573 489.593C301.567 501.582 300.996 510.013 302.98 527.883C304.936 545.499 305.853 548.83 309.169 550.341C312.853 552.02 315.04 548.787 315.869 540.438C316.94 529.644 319.161 521.43 322.719 515.099C333.564 495.803 361.017 473.503 403.476 449.5L416.177 442.319L418.013 444.684C419.023 445.984 422.054 451.485 424.748 456.907C441.243 490.097 441.948 525.719 426.709 556.048C418.211 572.962 400.783 593.202 386.597 602.633C368.551 614.629 349.813 620.805 328.671 621.722C267.278 624.384 217.703 584.726 208.314 525.438C205.908 510.254 206.775 485.839 210.177 472.969C213.098 461.919 218.649 449.532 224.715 440.524C230.165 432.433 243.181 418.979 250.948 413.408C258.553 407.953 271.358 401.969 280.368 399.657C290.492 397.06 309.616 397.22 324.201 400.023C338.293 402.732 344.058 402.828 346.263 400.393C353.457 392.443 336.272 380.685 308.463 374.529C303.854 373.509 294.479 372.143 287.629 371.491L275.176 370.308L270.226 361.854C256.818 338.952 251.349 321.947 251.309 303.035C251.24 271.03 271.702 244.346 302.317 236.516C311.515 234.164 327.211 233.97 335.611 236.105C343.501 238.11 354.095 243.44 360.709 248.731C365.561 252.611 366.539 254.067 370.013 262.57L373.895 272.072L377.407 272.042L380.918 272.012L422.321 178.911C445.093 127.704 463.968 85.7971 464.265 85.7833C464.562 85.7695 483.475 127.567 506.292 178.668L547.777 271.579L551.163 271.873C554.047 272.126 554.737 271.76 555.819 269.409C561.115 257.913 668.275 10.5282 668.275 9.79973C668.275 9.24671 661.114 8.86619 650.732 8.86619H633.189L592.324 103.948C563.447 171.139 551.235 198.539 550.691 197.352C550.27 196.428 531.381 153.752 508.718 102.516L467.512 9.35909L464.139 9.08208L460.767 8.80606L419.401 103.049C396.65 154.884 377.774 197.455 377.455 197.652C377.135 197.851 358.93 155.46 336.999 103.451L297.126 8.88887L279.513 8.87802C263.202 8.86718 261.937 8.99336 262.402 10.5913C262.678 11.5406 282.744 58.6731 306.995 115.331C331.246 171.989 351.322 219.176 351.609 220.19C352.098 221.921 351.984 221.937 349.755 220.477C345.964 217.993 334.001 213.313 326.875 211.526C310.63 207.452 291.017 207.549 275.763 211.779L269.285 213.575L268.756 184.415C267.752 129.044 259.057 79.1095 241.748 29.2957C238.088 18.7615 230.237 0.110426 232.111 6.40172ZM714.809 10.7333C700.208 15.7766 692.47 31.6162 697.383 46.406C699.922 54.0508 707.515 61.4146 715.146 63.6336C730.869 68.2037 746.221 59.9645 750.73 44.5359C754.017 33.2871 749.321 20.6937 739.349 14.0169C731.335 8.65031 723.77 7.63889 714.809 10.7333ZM1205.53 38.4487C1235.22 46.2778 1257.54 63.8515 1269.26 88.6253C1272.1 94.6218 1277.49 109.983 1277.49 112.066C1277.49 113.125 1259.89 113.36 1180.45 113.36H1083.42L1086.3 104.831C1098.17 69.7238 1121.67 46.6514 1153.78 38.5828C1165.16 35.721 1166.09 35.6353 1182.36 35.9517C1193.84 36.1745 1199.03 36.7334 1205.53 38.4487ZM705.702 254.081L705.669 418.461L702.574 414.518C696.298 406.521 679.384 390.548 671.81 385.466C642.422 365.742 604.909 359.741 567.725 368.813C520.083 380.437 479.87 422.582 468.621 472.679C466.142 483.72 465.603 511.732 467.607 525.347C471.964 554.948 484.435 579.293 506.545 601.367C526.281 621.072 543.702 631.264 568.218 637.451C581.582 640.824 607.742 641.778 622.549 639.432C650.135 635.063 673.163 623.025 694.645 601.741L705.735 590.753V612.797V634.841H722.494H739.252V362.271V89.7008H722.494H705.735L705.702 254.081ZM230.016 108.924C231.878 116.118 233.54 136.584 233.523 152.102C233.487 186.825 227.309 215.336 213.83 242.991C205.469 260.146 199.137 269.088 186.257 281.929C173.385 294.764 164.144 300.893 150.066 305.928C141.73 308.91 140.742 309.039 126.092 309.039C109.762 309.039 104.497 307.96 91.9925 302.05C68.444 290.923 46.9499 266.173 33.7778 235.019C31.1842 228.883 28.9474 223.977 28.8075 224.117C28.2032 224.721 34.5733 246.955 37.9092 255.887C50.6791 290.072 72.605 316.942 97.9969 329.522C111.53 336.227 123.439 338.699 137.951 337.815C188.161 334.756 229.721 282.495 240.014 209.474C242.439 192.28 242.237 164.243 239.564 146.384C237.558 132.992 232.398 111.492 230.46 108.45C229.702 107.261 229.61 107.358 230.016 108.924ZM796.921 294.959C789.881 297.443 782.23 305.238 779.815 312.389C779.193 314.233 778.683 318.692 778.683 322.3C778.683 333.187 784.145 341.655 794.73 347.18C800.987 350.446 811.932 350.251 818.697 346.755C824.561 343.723 829.449 338.506 832.155 332.387C833.681 328.938 834.01 326.364 833.738 319.991C833.433 312.838 833.026 311.372 830.062 306.755C826.587 301.342 820.978 296.851 815.257 294.901C811.163 293.506 800.946 293.538 796.921 294.959ZM987.178 365.764C978.713 367.076 965.125 371.112 957.433 374.599C942.075 381.563 921.208 398.383 909.941 412.881L905.85 418.146V394.891V371.636H888.595H871.341L871.59 502.992L871.84 634.349L888.845 634.619L905.85 634.888L905.874 578.429C905.905 502.059 907.236 478.591 912.483 461.836C917.237 446.661 924.644 434.533 936.335 422.786C956.617 402.405 983.579 393.186 1010.65 397.379C1035.47 401.224 1052.36 415.351 1060.17 438.798C1065.86 455.88 1065.79 454.692 1066.43 548.092L1067.03 634.349L1084.03 634.619L1101.04 634.888L1101.03 556.741C1101.02 468.301 1100.41 456.132 1094.95 434.234C1086.72 401.227 1061.44 375.734 1028.89 367.623C1019.48 365.276 996.839 364.267 987.178 365.764ZM1243.19 365.892C1195.84 371.832 1156.71 403.701 1137.5 451.978C1131.77 466.359 1129.53 478.501 1128.93 498.327C1128.12 525.036 1131.55 542.834 1141.55 563.837C1159.37 601.241 1188.9 626.995 1224.56 636.241C1239.09 640.006 1250.88 641.073 1271.38 640.474C1292.36 639.862 1304 637.684 1319.33 631.501C1347.66 620.071 1373.77 595.797 1387.96 567.699L1390.82 562.029L1387.63 560.123C1381.71 556.578 1362.25 546.794 1361.93 547.198C1361.75 547.419 1358.65 552.083 1355.03 557.562C1338.54 582.546 1323.1 595.03 1298.61 603.195C1283.94 608.084 1273.98 609.502 1258.27 608.941C1232.32 608.014 1213.95 600.359 1195.52 582.804C1178.55 566.638 1166.82 542.541 1164.65 519.378C1164.32 515.923 1163.85 511.434 1163.59 509.4L1163.12 505.703H1281.56H1400L1399.33 496.092C1397.76 473.402 1393.54 456.632 1385 439.123C1375.6 419.85 1361.29 402.563 1344.03 389.598C1334.95 382.777 1315.72 373.327 1304.49 370.161C1287.16 365.279 1262.03 363.529 1243.19 365.892ZM789.527 503.239V634.841H806.286H823.044V503.239V371.636H806.286H789.527V503.239ZM1274.53 398.244C1287.16 399.692 1297.51 402.73 1309.53 408.511C1334.09 420.329 1348.23 436.22 1357.44 462.352C1359.55 468.362 1361.28 473.92 1361.28 474.704C1361.28 475.938 1348.22 476.13 1264.18 476.13C1210.78 476.13 1167.08 475.943 1167.08 475.716C1167.08 475.488 1168.47 471.384 1170.15 466.597C1180.51 437.24 1197.07 417.96 1221.71 406.577C1237.98 399.059 1256.36 396.16 1274.53 398.244ZM630.988 401.022C649.087 405.904 663.368 414.112 676.695 427.29C690.468 440.908 699.33 456.486 705.019 477.085C706.752 483.352 707.08 487.425 707.129 503.239C707.192 523.584 705.922 531.395 700.187 545.953C693.631 562.593 678.268 581.639 663.839 591.016C631.2 612.228 592.764 615.17 559.824 598.979C549.308 593.811 542.094 588.601 533.104 579.686C503.47 550.297 493.217 506.87 506.807 468.311C510.504 457.823 512.336 454.164 519.186 443.599C532.677 422.787 556.274 406.211 580.047 400.844C583.843 399.987 587.835 399.08 588.919 398.829C590.004 398.577 598.21 398.509 607.156 398.676C619.785 398.913 625.113 399.437 630.988 401.022Z" fill="#8F8E8C"/>
</svg>
