<svg width="779" height="893" viewBox="0 0 779 893" fill="none" xmlns="http://www.w3.org/2000/svg">
<path d="M619.537 279.757C699.938 408.228 788.38 521.282 778.196 620.847C768.012 720.411 659.202 805.844 550.927 852.736C442.653 899.628 335.451 907.978 229.321 864.941C123.727 821.903 19.2049 727.477 2.58853 616.35C-14.5638 505.223 56.1896 376.11 136.055 248.282C215.921 119.811 304.899 -7.3747 385.836 0.333537C466.238 8.68413 538.599 151.929 619.537 279.757Z" fill="#FAF8F2"/>
<path d="M168.199 557.608C192.108 553.867 208.399 560.151 218.533 567.048C218.28 568.787 218.153 570.542 218.151 572.299C218.148 577.414 219.227 582.471 221.315 587.14C212.413 588.154 204.195 592.411 198.229 599.098C192.263 605.785 188.965 614.435 188.965 623.399C188.965 632.362 192.263 641.012 198.229 647.699C204.195 654.387 212.413 658.643 221.315 659.658C217.662 667.853 217.157 677.109 219.895 685.654C222.633 694.199 228.424 701.435 236.159 705.978C243.894 710.521 253.031 712.053 261.825 710.282C270.618 708.51 278.45 703.558 283.824 696.373C287.217 700.913 291.623 704.599 296.689 707.138C301.756 709.677 307.345 710.999 313.012 710.999C318.678 710.999 324.267 709.677 329.334 707.138C334.401 704.599 338.806 700.913 342.2 696.373C345.594 700.913 349.999 704.598 355.066 707.137C360.132 709.676 365.721 710.998 371.388 710.999H561.109C562.888 710.998 564.605 710.348 565.938 709.171C567.271 707.993 568.129 706.369 568.349 704.603C568.57 702.838 568.138 701.053 567.135 699.583C566.133 698.113 564.628 697.061 562.904 696.623C562.648 696.557 537.692 689.861 524.624 665.396V600.899C550.675 596.779 583 571.386 583 528.499C583 483.888 561.557 426.172 560.644 423.736C560.122 422.345 559.189 421.146 557.968 420.3C556.747 419.453 555.297 419 553.812 419H480.842C479.689 419.001 478.553 419.277 477.528 419.804C468.397 408.599 457.119 399.334 444.357 392.553V331.4C446.293 331.4 448.149 330.631 449.517 329.262C450.886 327.893 451.654 326.036 451.654 324.1V280.3C451.654 278.364 450.886 276.507 449.517 275.138C448.149 273.769 446.293 273 444.357 273H385.982C384.046 273 382.19 273.769 380.822 275.138C379.453 276.507 378.685 278.364 378.685 280.3V324.1C378.685 326.036 379.453 327.893 380.822 329.262C382.19 330.631 384.046 331.4 385.982 331.4V392.558C377.573 397.056 369.775 402.611 362.774 409.088C344.54 426.026 334.903 447.124 334.903 470.099V543.119C331.072 540.237 326.71 538.139 322.068 536.945C317.425 535.752 312.593 535.487 307.848 536.166C303.102 536.845 298.538 538.454 294.415 540.9C290.293 543.347 286.694 546.584 283.824 550.425C278.458 543.263 270.652 538.319 261.886 536.529C261.91 536.288 261.933 536.047 261.933 535.799V519.16C274.097 524.932 285.793 526.602 296.835 524.118C316.376 519.723 326.159 503.733 326.57 503.055C327.088 502.193 327.421 501.233 327.55 500.235C327.679 499.238 327.6 498.224 327.319 497.259C327.038 496.293 326.561 495.396 325.917 494.623C325.273 493.851 324.476 493.22 323.577 492.77L304.194 483.075C321.31 464.944 327.191 436.422 327.469 435.031C327.837 433.192 327.482 431.281 326.479 429.696C325.476 428.111 323.902 426.972 322.083 426.518C301.233 421.303 280.643 423.05 269.234 424.784V404.4C269.234 403.243 268.96 402.103 268.433 401.073C267.906 400.044 267.142 399.154 266.204 398.478C265.266 397.801 264.181 397.358 263.038 397.183C261.895 397.009 260.727 397.109 259.63 397.475C225.412 408.881 215.198 432.462 212.152 445.802L198.568 441.274C197.471 440.909 196.303 440.809 195.16 440.983C194.017 441.158 192.932 441.601 191.994 442.278C191.056 442.954 190.292 443.843 189.765 444.873C189.238 445.903 188.963 447.043 188.963 448.199C188.963 478.51 198.614 495.229 203.265 501.528C200.475 505.655 198.041 510.012 195.991 514.553C192.036 523.262 189.654 532.603 188.956 542.143C181.271 541.607 173.549 541.958 165.945 543.19C164.082 543.542 162.429 544.605 161.335 546.154C160.242 547.704 159.795 549.618 160.088 551.492C160.381 553.366 161.391 555.052 162.905 556.194C164.419 557.335 166.318 557.842 168.199 557.608ZM451.654 637.999H378.685V521.199H451.654V637.999ZM479.071 693.852C476.941 694.834 474.753 695.685 472.518 696.399H400.552C405.301 690.086 407.869 682.399 407.869 674.499C407.869 666.598 405.301 658.911 400.552 652.599H458.951C460.887 652.599 462.743 651.83 464.111 650.461C465.48 649.092 466.248 647.235 466.248 645.299V573.462C470.405 578.984 475.318 583.894 480.842 588.047V689.099C480.842 690.845 480.214 692.532 479.071 693.852ZM261.933 623.399C261.933 619.067 263.217 614.833 265.622 611.232C268.028 607.63 271.446 604.823 275.446 603.166C279.447 601.508 283.848 601.075 288.094 601.92C292.341 602.765 296.242 604.85 299.303 607.913C302.365 610.976 304.449 614.878 305.294 619.126C306.139 623.375 305.705 627.778 304.048 631.78C302.391 635.781 299.586 639.202 295.986 641.608C292.386 644.014 288.153 645.299 283.824 645.299C278.02 645.292 272.456 642.982 268.352 638.877C264.248 634.771 261.94 629.205 261.933 623.399ZM342.2 645.299C337.87 645.299 333.638 644.014 330.038 641.608C326.438 639.202 323.632 635.781 321.975 631.78C320.318 627.778 319.885 623.375 320.729 619.126C321.574 614.878 323.659 610.976 326.72 607.913C329.782 604.85 333.682 602.765 337.929 601.92C342.175 601.075 346.577 601.508 350.577 603.166C354.577 604.823 357.996 607.63 360.401 611.232C362.807 614.833 364.091 619.067 364.091 623.399C364.084 629.205 361.775 634.771 357.671 638.877C353.568 642.982 348.003 645.292 342.2 645.299ZM203.557 623.399C203.557 619.067 204.841 614.833 207.246 611.232C209.652 607.63 213.071 604.823 217.071 603.166C221.071 601.508 225.472 601.075 229.719 601.92C233.965 602.765 237.866 604.85 240.927 607.913C243.989 610.976 246.074 614.878 246.918 619.126C247.763 623.375 247.329 627.778 245.673 631.78C244.016 635.781 241.21 639.202 237.61 641.608C234.01 644.014 229.778 645.299 225.448 645.299C219.644 645.292 214.08 642.982 209.976 638.877C205.872 634.771 203.564 629.205 203.557 623.399ZM254.636 696.399C250.306 696.399 246.074 695.114 242.474 692.708C238.874 690.301 236.068 686.881 234.411 682.879C232.754 678.878 232.321 674.474 233.166 670.226C234.01 665.978 236.095 662.076 239.157 659.013C242.218 655.95 246.119 653.865 250.365 653.02C254.612 652.174 259.013 652.608 263.013 654.266C267.013 655.923 270.432 658.73 272.838 662.332C275.243 665.933 276.527 670.167 276.527 674.499C276.52 680.305 274.211 685.871 270.108 689.977C266.004 694.082 260.44 696.392 254.636 696.399ZM313.012 696.399C308.682 696.399 304.45 695.114 300.85 692.708C297.25 690.301 294.444 686.881 292.787 682.879C291.13 678.878 290.697 674.474 291.541 670.226C292.386 665.978 294.471 662.076 297.532 659.013C300.594 655.95 304.495 653.865 308.741 653.02C312.987 652.174 317.389 652.608 321.389 654.266C325.389 655.923 328.808 658.73 331.213 662.332C333.619 665.933 334.903 670.167 334.903 674.499C334.896 680.305 332.587 685.871 328.483 689.977C324.38 694.082 318.815 696.392 313.012 696.399ZM349.497 674.499C349.497 670.167 350.78 665.933 353.186 662.332C355.591 658.73 359.01 655.923 363.01 654.266C367.01 652.608 371.412 652.174 375.658 653.02C379.905 653.865 383.805 655.95 386.867 659.013C389.928 662.076 392.013 665.978 392.858 670.226C393.703 674.474 393.269 678.878 391.612 682.879C389.955 686.881 387.149 690.301 383.549 692.708C379.95 695.114 375.717 696.399 371.388 696.399C365.584 696.392 360.02 694.082 355.916 689.977C351.812 685.871 349.503 680.305 349.497 674.499ZM495.436 683.451V596.571C500.1 598.621 505.003 600.076 510.03 600.903V665.399C506.34 672.279 501.389 678.402 495.436 683.451ZM502.776 696.399C508.289 692.02 513.184 686.915 517.327 681.222C521.47 686.915 526.365 692.02 531.878 696.399H502.776ZM549.775 572.41C538.194 583.104 525.058 586.899 517.327 586.899C509.596 586.899 496.461 583.104 484.879 572.41C476.379 564.561 466.248 550.572 466.248 528.499C466.361 518.742 467.242 509.009 468.883 499.39L482.761 495.424C485.812 494.55 489.016 494.351 492.152 494.84C495.287 495.33 498.278 496.497 500.917 498.26L519.376 510.57C524.73 514.133 530.929 516.219 537.347 516.62C543.765 517.02 550.175 515.721 555.931 512.852L566.929 507.35C567.864 514.362 568.357 521.426 568.406 528.499C568.406 550.572 558.275 564.561 549.775 572.41ZM548.667 433.599C552.067 443.409 559.809 467.126 564.523 492.228L549.405 499.792C545.951 501.514 542.105 502.293 538.254 502.053C534.403 501.813 530.684 500.561 527.471 498.423L509.012 486.112C504.614 483.174 499.629 481.23 494.403 480.414C489.178 479.597 483.838 479.929 478.753 481.386L471.934 483.334C475.667 466.501 480.36 449.896 485.989 433.599H548.667ZM393.278 287.6H437.06V316.8C435.125 316.8 433.269 317.569 431.901 318.938C430.532 320.307 429.763 322.164 429.763 324.1V360.6H400.575V324.1C400.575 322.164 399.807 320.307 398.438 318.938C397.07 317.569 395.214 316.8 393.278 316.8V287.6ZM429.763 389.8H400.575V375.2H429.763V389.8ZM349.497 470.099C349.497 451.165 357.192 434.343 372.369 420.1C379.092 413.818 386.679 408.531 394.899 404.4H435.447C440.332 406.778 458.396 416.458 470.221 434.591C465.172 449.788 456.516 478.595 453.101 506.599H371.388C369.452 506.599 367.596 507.368 366.228 508.737C364.859 510.106 364.091 511.963 364.091 513.899V594.219C359.776 590.966 354.79 588.716 349.497 587.633V470.099ZM313.012 550.399C317.341 550.399 321.574 551.683 325.174 554.09C328.774 556.496 331.579 559.917 333.236 563.918C334.893 567.92 335.327 572.323 334.482 576.571C333.637 580.82 331.552 584.722 328.491 587.785C325.429 590.847 321.529 592.933 317.282 593.778C313.036 594.623 308.634 594.189 304.634 592.532C300.634 590.874 297.215 588.067 294.81 584.466C292.405 580.865 291.121 576.63 291.121 572.299C291.128 566.493 293.436 560.926 297.54 556.821C301.644 552.715 307.208 550.406 313.012 550.399ZM276.527 572.299C276.527 576.63 275.243 580.865 272.838 584.466C270.432 588.067 267.013 590.874 263.013 592.532C259.013 594.189 254.612 594.623 250.365 593.778C246.119 592.933 242.218 590.847 239.157 587.785C236.095 584.722 234.01 580.82 233.166 576.571C232.321 572.323 232.754 567.92 234.411 563.918C236.068 559.917 238.874 556.496 242.474 554.09C246.074 551.683 250.306 550.399 254.636 550.399C260.44 550.406 266.004 552.715 270.108 556.821C274.211 560.926 276.52 566.493 276.527 572.299ZM209.851 483.612C207.6 478.319 205.008 470.025 203.994 458.473L215.843 462.424C216.937 462.795 218.102 462.9 219.244 462.731C220.386 462.561 221.471 462.122 222.41 461.45C223.348 460.778 224.114 459.891 224.642 458.865C225.17 457.838 225.446 456.7 225.448 455.545C225.463 454.381 226.142 429.334 254.636 415.251V433.599C254.637 434.708 254.89 435.802 255.376 436.798C255.862 437.794 256.568 438.666 257.441 439.349C258.314 440.031 259.331 440.506 260.414 440.737C261.498 440.968 262.62 440.95 263.695 440.683C263.946 440.621 286.863 435.076 311.323 439.182C308.182 449.76 300.743 469.508 287.073 478.626C286.009 479.335 285.151 480.311 284.583 481.457C284.016 482.602 283.759 483.877 283.838 485.153C283.918 486.429 284.331 487.662 285.036 488.728C285.741 489.794 286.714 490.656 287.857 491.228L308.745 501.676C304.473 505.734 299.196 508.578 293.459 509.912C283.116 512.174 271.415 509.016 258.684 500.526C257.585 499.793 256.308 499.372 254.989 499.308C253.669 499.244 252.357 499.54 251.193 500.163C250.028 500.786 249.055 501.714 248.376 502.848C247.697 503.981 247.339 505.278 247.339 506.599V523.096C239.754 518.22 229.526 510.701 221.649 501.459C233.243 488.22 249.996 477.564 271.724 469.66C272.625 469.333 273.452 468.831 274.159 468.183C274.866 467.536 275.438 466.756 275.844 465.887C276.249 465.018 276.479 464.078 276.521 463.12C276.563 462.162 276.416 461.206 276.089 460.305C275.761 459.404 275.26 458.576 274.613 457.869C273.965 457.162 273.185 456.589 272.317 456.184C271.448 455.778 270.509 455.548 269.551 455.506C268.594 455.464 267.638 455.611 266.737 455.938C249.68 462.143 228.798 472.585 212.831 489.573C211.71 487.652 210.715 485.661 209.851 483.612ZM209.645 519.788C210.629 517.669 211.711 515.598 212.893 513.575C222.949 524.505 235.166 532.857 243.108 537.677C235.053 540.381 228.188 545.8 223.685 553.007C217.396 549.183 210.574 546.315 203.442 544.497C203.892 535.937 205.999 527.545 209.645 519.788Z" fill="#BC6E44"/>
<path d="M371.388 491.999C373.323 491.999 375.179 491.23 376.547 489.861C377.916 488.492 378.685 486.635 378.685 484.699V470.099C378.685 458.579 384.08 448.175 394.719 439.174C396.182 437.92 397.089 436.137 397.244 434.216C397.398 432.294 396.786 430.39 395.542 428.918C394.298 427.446 392.523 426.526 390.603 426.359C388.684 426.191 386.776 426.79 385.296 428.025C371.423 439.761 364.091 454.313 364.091 470.099V484.699C364.091 486.635 364.859 488.492 366.228 489.861C367.596 491.23 369.452 491.999 371.388 491.999Z" fill="#BC6E44"/>
</svg>
