<svg width="759" height="907" viewBox="0 0 759 907" fill="none" xmlns="http://www.w3.org/2000/svg">
<path d="M719.538 339.933C782.972 524.226 776.175 741.753 653.085 841.453C529.239 941.153 289.1 923.781 148.641 811.997C8.18161 700.212 -31.8417 493.259 24.795 317.274C82.1869 141.288 236.239 -2.9746 379.718 0.0466056C523.198 3.82312 656.861 155.639 719.538 339.933Z" fill="#F0EEE8"/>
<path d="M446.105 218.324C445.362 216.887 444.2 215.71 442.774 214.946C441.348 214.183 439.724 213.87 438.116 214.049C435.076 214.387 363.008 222.885 305.794 271.926C304.918 272.677 304.214 273.609 303.732 274.657C303.25 275.706 303 276.846 303 278V302H287C267.911 302.021 249.61 309.614 236.112 323.112C222.614 336.61 215.021 354.911 215 374V416.564C214.994 426.951 217.239 437.216 221.579 446.653C225.92 456.09 232.253 464.475 240.144 471.23L248.806 478.656C238.677 501.833 231 526.984 231 550C231 574.443 235.857 637.126 280.854 691.121C281.605 692.022 282.544 692.747 283.607 693.244C284.669 693.742 285.827 694 287 694H415C421.213 693.999 427.34 692.551 432.895 689.768C438.449 686.986 443.279 682.947 447 677.972C450.721 682.947 455.55 686.987 461.105 689.769C466.66 692.551 472.787 694 479 694C485.213 694 491.34 692.551 496.895 689.769C502.45 686.987 507.279 682.947 511 677.972C516.891 685.848 525.477 691.277 535.119 693.22C544.76 695.163 554.78 693.485 563.261 688.505C571.743 683.525 578.091 675.594 581.093 666.228C584.094 656.862 583.538 646.718 579.531 637.736C589.291 636.624 598.3 631.959 604.841 624.631C611.382 617.302 614.997 607.823 614.997 598C614.997 588.177 611.382 578.698 604.841 571.369C598.3 564.041 589.291 559.376 579.531 558.264C582.618 551.364 583.675 543.727 582.58 536.248C593.524 528.804 611.401 521.781 637.765 525.904C638.805 526.072 639.869 526.032 640.894 525.788C641.919 525.544 642.886 525.099 643.739 524.48C644.592 523.861 645.314 523.079 645.864 522.18C646.414 521.281 646.78 520.282 646.943 519.241C647.106 518.2 647.061 517.137 646.812 516.113C646.562 515.089 646.113 514.124 645.49 513.274C644.866 512.425 644.081 511.706 643.179 511.161C642.278 510.615 641.277 510.254 640.235 510.096C631.898 508.748 623.433 508.367 615.009 508.96C614.244 498.503 611.632 488.263 607.295 478.717C605.048 473.74 602.38 468.964 599.32 464.441C604.42 457.541 615 439.217 615 406C615 404.732 614.699 403.483 614.121 402.354C613.544 401.226 612.706 400.251 611.678 399.51C610.649 398.768 609.46 398.282 608.206 398.091C606.953 397.9 605.673 398.009 604.47 398.41L589.582 403.373C586.242 388.755 575.044 362.915 537.53 350.41C536.327 350.009 535.047 349.9 533.794 350.091C532.54 350.282 531.351 350.768 530.322 351.51C529.294 352.251 528.456 353.226 527.879 354.354C527.301 355.483 527 356.732 527 358V380.344C514.493 378.434 491.92 376.524 469.06 382.244C467.065 382.742 465.339 383.99 464.24 385.727C463.14 387.464 462.752 389.558 463.155 391.574C463.46 393.098 469.907 424.355 488.672 444.225L467.422 454.85C466.436 455.343 465.563 456.034 464.857 456.881C464.151 457.727 463.627 458.71 463.319 459.769C463.011 460.827 462.925 461.937 463.066 463.031C463.207 464.124 463.573 465.176 464.14 466.121C464.586 466.864 475.312 484.387 496.74 489.204C508.84 491.925 521.668 490.096 535.005 483.77V502C535.005 502.268 535.03 502.532 535.056 502.8C525.444 504.76 516.884 510.178 511 518.028C507.511 513.359 503.041 509.51 497.906 506.753C492.771 503.995 487.094 502.394 481.275 502.064C475.455 501.734 469.634 502.682 464.219 504.841C458.805 507 453.929 510.319 449.934 514.563C442.258 485.372 427.159 456.049 413.86 433.884C388.544 391.69 383 370.576 383 366C383 349.823 387.47 292.014 444.979 227.314C446.054 226.105 446.736 224.599 446.937 222.994C447.138 221.389 446.848 219.761 446.105 218.324ZM272.308 433.6L272.008 433.359C269.191 431.117 266.917 428.266 265.358 425.021C263.798 421.776 262.992 418.22 263 414.62V374C263.007 367.637 265.538 361.537 270.038 357.038C274.537 352.538 280.637 350.007 287 350H303V366C303 370.566 297.477 391.6 272.308 433.6ZM250.556 459.082C244.419 453.828 239.493 447.307 236.117 439.967C232.741 432.627 230.995 424.643 231 416.564V374C231.017 359.153 236.922 344.919 247.42 334.42C257.919 323.922 272.153 318.017 287 318H303V334H287C276.395 334.012 266.228 338.23 258.729 345.729C251.23 353.228 247.012 363.395 247 374V414.62C246.986 420.621 248.328 426.548 250.928 431.957C253.528 437.365 257.317 442.116 262.012 445.854L264.221 447.622C261.397 452.728 258.574 458.072 255.831 463.604L250.556 459.082ZM247 550C247.017 545.663 247.307 541.331 247.868 537.031L288.886 554.12C298.43 558.1 308.72 559.976 319.055 559.62C329.39 559.264 339.526 556.685 348.774 552.057L373.96 539.465C381.741 535.599 390.312 533.586 399.002 533.586C407.691 533.586 416.262 535.599 424.043 539.465L438.943 546.914C438.978 547.954 439 548.986 439 550.003C439 552.903 438.924 555.862 438.788 558.854C432.946 560.076 427.452 562.59 422.709 566.213C417.966 569.836 414.095 574.475 411.379 579.789C408.663 585.104 407.171 590.959 407.014 596.925C406.856 602.891 408.037 608.817 410.469 614.267C403.47 615.061 396.806 617.69 391.15 621.888C385.494 626.086 381.048 631.704 378.262 638.173C375.476 644.643 374.449 651.733 375.285 658.727C376.121 665.721 378.79 672.37 383.022 678H290.8C251.329 628.686 247 572.267 247 550ZM511 622C506.253 622 501.613 620.592 497.666 617.955C493.72 615.318 490.643 611.57 488.827 607.184C487.01 602.799 486.535 597.973 487.461 593.318C488.387 588.662 490.673 584.386 494.029 581.029C497.386 577.673 501.662 575.387 506.318 574.461C510.973 573.535 515.799 574.01 520.184 575.827C524.57 577.643 528.318 580.719 530.955 584.666C533.592 588.613 535 593.253 535 598C534.993 604.363 532.462 610.463 527.962 614.962C523.463 619.462 517.363 621.993 511 622ZM447 574C451.747 574 456.387 575.408 460.334 578.045C464.28 580.682 467.357 584.43 469.173 588.816C470.99 593.201 471.465 598.027 470.539 602.682C469.613 607.338 467.327 611.614 463.971 614.97C460.614 618.327 456.338 620.613 451.682 621.539C447.027 622.465 442.201 621.99 437.816 620.173C433.43 618.357 429.682 615.28 427.045 611.334C424.408 607.387 423 602.747 423 598C423.007 591.637 425.538 585.537 430.038 581.038C434.537 576.538 440.637 574.007 447 574ZM415 678C410.253 678 405.613 676.592 401.666 673.955C397.72 671.318 394.643 667.57 392.827 663.184C391.01 658.799 390.535 653.973 391.461 649.318C392.387 644.662 394.673 640.386 398.029 637.029C401.386 633.673 405.662 631.387 410.318 630.461C414.973 629.535 419.799 630.01 424.184 631.827C428.57 633.643 432.318 636.719 434.955 640.666C437.592 644.613 439 649.253 439 654C438.993 660.363 436.462 666.463 431.962 670.962C427.463 675.462 421.363 677.993 415 678ZM479 678C474.253 678 469.613 676.592 465.666 673.955C461.72 671.318 458.643 667.57 456.827 663.184C455.01 658.799 454.535 653.973 455.461 649.318C456.387 644.662 458.673 640.386 462.029 637.029C465.386 633.673 469.662 631.387 474.318 630.461C478.973 629.535 483.799 630.01 488.184 631.827C492.57 633.643 496.318 636.719 498.955 640.666C501.592 644.613 503 649.253 503 654C502.993 660.363 500.462 666.463 495.962 670.962C491.463 675.462 485.363 677.993 479 678ZM543 678C538.253 678 533.613 676.592 529.666 673.955C525.72 671.318 522.643 667.57 520.827 663.184C519.01 658.799 518.535 653.973 519.461 649.318C520.387 644.662 522.673 640.386 526.029 637.029C529.386 633.673 533.662 631.387 538.318 630.461C542.973 629.535 547.799 630.01 552.184 631.827C556.57 633.643 560.318 636.719 562.955 640.666C565.592 644.613 567 649.253 567 654C566.993 660.363 564.462 666.463 559.962 670.962C555.463 675.462 549.363 677.993 543 678ZM599 598C599 602.747 597.592 607.387 594.955 611.334C592.318 615.28 588.57 618.357 584.184 620.173C579.799 621.99 574.973 622.465 570.318 621.539C565.662 620.613 561.386 618.327 558.029 614.97C554.673 611.614 552.387 607.338 551.461 602.682C550.535 598.027 551.01 593.201 552.827 588.816C554.643 584.43 557.72 580.682 561.666 578.045C565.613 575.408 570.253 574 575 574C581.363 574.007 587.463 576.538 591.962 581.038C596.462 585.537 598.993 591.637 599 598ZM576.932 520.856C571.995 512.958 564.468 507.019 555.638 504.056C564.346 498.774 577.738 489.621 588.764 477.643C590.058 479.86 591.245 482.13 592.325 484.451C596.324 492.955 598.634 502.156 599.125 511.541C591.308 513.534 583.829 516.673 576.932 520.856ZM500.437 473.631C494.147 472.168 488.361 469.052 483.677 464.605L506.577 453.155C507.83 452.528 508.897 451.583 509.67 450.415C510.443 449.247 510.896 447.895 510.983 446.497C511.07 445.099 510.789 443.702 510.166 442.447C509.544 441.191 508.603 440.121 507.437 439.344C492.448 429.352 484.293 407.706 480.85 396.118C507.674 391.618 532.791 397.696 533.059 397.761C534.238 398.056 535.47 398.078 536.659 397.826C537.848 397.574 538.965 397.054 539.923 396.306C540.881 395.558 541.657 394.601 542.19 393.508C542.723 392.416 543 391.216 543 390V369.892C574.239 385.324 574.983 412.77 575 414C575 415.268 575.301 416.517 575.879 417.646C576.456 418.774 577.294 419.749 578.322 420.49C579.351 421.232 580.54 421.718 581.794 421.909C583.047 422.1 584.327 421.991 585.53 421.59L598.521 417.26C597.409 429.918 594.568 439.006 592.1 444.808C591.151 447.054 590.059 449.236 588.83 451.341C571.33 432.724 548.435 421.281 529.73 414.481C528.743 414.122 527.694 413.961 526.645 414.007C525.595 414.053 524.565 414.306 523.612 414.75C522.66 415.194 521.805 415.822 521.096 416.597C520.386 417.372 519.836 418.279 519.477 419.266C519.118 420.253 518.957 421.302 519.003 422.351C519.049 423.401 519.302 424.431 519.746 425.383C520.19 426.336 520.818 427.191 521.593 427.9C522.368 428.61 523.275 429.16 524.262 429.519C548.081 438.18 566.448 449.857 579.162 464.365C570.54 474.465 559.321 482.71 550.999 488.065V470C550.999 468.552 550.606 467.131 549.862 465.889C549.118 464.647 548.05 463.63 546.774 462.947C545.497 462.263 544.059 461.939 542.612 462.009C541.166 462.079 539.766 462.541 538.561 463.344C524.6 472.65 511.771 476.11 500.437 473.631ZM543 518C547.747 518 552.387 519.408 556.334 522.045C560.28 524.682 563.357 528.43 565.173 532.816C566.99 537.201 567.465 542.027 566.539 546.682C565.613 551.338 563.327 555.614 559.971 558.97C556.614 562.327 552.338 564.613 547.682 565.539C543.027 566.465 538.201 565.99 533.816 564.173C529.43 562.357 525.682 559.28 523.045 555.334C520.408 551.387 519 546.747 519 542C519.007 535.637 521.538 529.537 526.038 525.038C530.537 520.538 536.637 518.007 543 518ZM479 518C483.747 518 488.387 519.408 492.334 522.045C496.28 524.682 499.357 528.43 501.173 532.816C502.99 537.201 503.465 542.027 502.539 546.682C501.613 551.338 499.327 555.614 495.971 558.97C492.614 562.327 488.338 564.613 483.682 565.539C479.027 566.465 474.201 565.99 469.816 564.173C465.43 562.357 461.682 559.28 459.045 555.334C456.408 551.387 455 546.747 455 542C455.007 535.637 457.538 529.537 462.038 525.038C466.537 520.538 472.637 518.007 479 518ZM367 366C367 376.1 375.706 401.393 400.14 442.116C419.382 474.186 431.751 503.349 436.632 527.867L431.2 525.15C421.195 520.179 410.176 517.592 399.004 517.592C387.832 517.592 376.813 520.179 366.808 525.15L341.622 537.742C334.429 541.341 326.545 543.347 318.507 543.624C310.469 543.901 302.465 542.442 295.042 539.347L250.905 520.963C256.586 497.943 268.395 471.225 285.86 442.116C310.294 401.393 319 376.1 319 366V281.726C353.657 253.145 394.418 239.835 418.652 234.026C370.986 295.907 367 349.886 367 366Z" fill="#BC6E44"/>
</svg>
