<svg width="843" height="907" viewBox="0 0 843 907" fill="none" xmlns="http://www.w3.org/2000/svg">
<path d="M590.488 260.079C696.316 371.264 830.747 467.372 842.188 585.466C853.629 703.561 742.795 843.012 599.783 888.868C457.487 935.352 284.443 886.983 187.195 805.951C89.9477 724.29 69.2111 608.708 40.6088 495.64C12.0065 383.199 -24.4614 272.643 22.7324 172.765C69.9261 72.8878 200.782 -16.3109 304.465 2.53388C408.148 21.3787 485.374 148.267 590.488 260.079Z" fill="#F0EEE8"/>
<path d="M701 646H669V614C669 611.878 668.157 609.843 666.657 608.343C665.157 606.843 663.122 606 661 606C656.757 606 652.687 604.314 649.686 601.314C646.686 598.313 645 594.243 645 590C645 585.757 646.686 581.687 649.686 578.686C652.687 575.686 656.757 574 661 574C663.122 574 665.157 573.157 666.657 571.657C668.157 570.157 669 568.122 669 566V510C669 507.878 668.157 505.843 666.657 504.343C665.157 502.843 663.122 502 661 502H501C498.878 502 496.843 502.843 495.343 504.343C493.843 505.843 493 507.878 493 510C493 514.243 491.314 518.313 488.314 521.314C485.313 524.314 481.243 526 477 526C472.757 526 468.687 524.314 465.686 521.314C462.686 518.313 461 514.243 461 510C461 507.878 460.157 505.843 458.657 504.343C457.157 502.843 455.122 502 453 502H405C402.878 502 400.843 502.843 399.343 504.343C397.843 505.843 397 507.878 397 510V542C397 544.122 397.843 546.157 399.343 547.657C400.843 549.157 402.878 550 405 550C413.487 550 421.626 553.371 427.627 559.373C433.629 565.374 437 573.513 437 582C437 590.487 433.629 598.626 427.627 604.627C421.626 610.629 413.487 614 405 614C402.878 614 400.843 614.843 399.343 616.343C397.843 617.843 397 619.878 397 622V646H364.164C359.774 640.849 357 635.435 357 630V486C357 483.65 358.119 476.913 368.08 463.906C388.241 456.655 405.677 443.363 418.01 425.843C430.343 408.323 436.974 387.426 437 366C437 308.923 397.945 222.347 396.283 218.689C395.647 217.291 394.622 216.105 393.331 215.274C392.04 214.442 390.536 214 389 214H277C275.464 214 273.96 214.442 272.669 215.274C271.378 216.105 270.353 217.291 269.717 218.689C268.055 222.347 229 308.923 229 366C229.025 387.426 235.657 408.323 247.99 425.843C260.324 443.364 277.759 456.655 297.921 463.906C307.881 476.913 309 483.651 309 486V630C309 651.543 265.445 672.772 250.191 678.509C248.436 679.167 246.968 680.42 246.042 682.05C245.117 683.68 244.793 685.583 245.127 687.427C245.462 689.272 246.433 690.94 247.872 692.141C249.311 693.342 251.126 694 253 694H669C679.605 693.988 689.772 689.77 697.271 682.271C704.77 674.772 708.988 664.605 709 654C709 651.878 708.157 649.843 706.657 648.343C705.157 646.843 703.122 646 701 646ZM613 518C613 524.365 610.471 530.47 605.971 534.971C601.47 539.471 595.365 542 589 542C582.635 542 576.53 539.471 572.029 534.971C567.529 530.47 565 524.365 565 518H613ZM413 629.333C424.185 627.442 434.339 621.65 441.661 612.986C448.984 604.321 453.001 593.344 453.001 582C453.001 570.656 448.984 559.679 441.661 551.014C434.339 542.35 424.185 536.558 413 534.667V518H446.012C447.783 524.872 451.788 530.961 457.398 535.308C463.007 539.655 469.903 542.014 477 542.014C484.096 542.014 490.992 539.655 496.601 535.308C502.211 530.961 506.216 524.872 507.987 518H549C549 528.609 553.214 538.783 560.716 546.284C568.217 553.786 578.391 558 589 558C599.609 558 609.783 553.786 617.284 546.284C624.786 538.783 629 528.609 629 518H653V559.012C646.131 560.786 640.045 564.793 635.701 570.402C631.357 576.011 628.999 582.905 628.999 590C628.999 597.095 631.357 603.989 635.701 609.598C640.045 615.207 646.131 619.214 653 620.988V646H413V629.333ZM282.226 230H383.774C390.361 245.282 410.9 295.073 418.3 338.09C407.967 342.543 388.369 350 373 350C363.564 350 350.39 340.59 337.65 331.49C322.858 320.925 307.564 310 293 310C281.693 310 267.956 314.366 252.169 322.977C251.618 323.277 251.081 323.577 250.545 323.877C259.405 284.658 276.355 243.621 282.226 230ZM245 366C245.055 358.977 245.594 351.966 246.614 345.017C257.573 337.685 278.17 326 293 326C302.436 326 315.61 335.41 328.35 344.51C343.142 355.075 358.436 366 373 366C389.269 366 408.36 359.475 420.474 354.541C420.816 358.489 421 362.322 421 366C421 389.339 411.729 411.722 395.225 428.225C378.722 444.729 356.339 454 333 454C309.661 454 287.278 444.729 270.775 428.225C254.271 411.722 245 389.339 245 366ZM287.264 678C287.922 677.6 288.581 677.195 289.24 676.784C312.969 661.954 325 646.213 325 630V486C325 481.057 323.411 475.444 320.283 469.221C328.729 470.26 337.271 470.26 345.717 469.221C342.589 475.444 341 481.057 341 486V630C341 646.213 353.031 661.954 376.76 676.784C377.419 677.196 378.078 677.601 378.736 678H287.264ZM669 678H414.486C403.658 673.642 393.26 668.286 383.425 662H691.625C689.965 666.675 686.9 670.723 682.85 673.588C678.799 676.452 673.961 677.993 669 678Z" fill="#BC6E44"/>
<path d="M509 558C502.671 558 496.484 559.877 491.222 563.393C485.959 566.909 481.858 571.907 479.436 577.754C477.014 583.601 476.38 590.035 477.615 596.243C478.85 602.45 481.897 608.152 486.373 612.627C490.848 617.103 496.55 620.15 502.757 621.385C508.965 622.62 515.399 621.986 521.246 619.564C527.093 617.142 532.091 613.041 535.607 607.778C539.123 602.516 541 596.329 541 590C540.99 581.516 537.616 573.382 531.617 567.383C525.618 561.384 517.484 558.01 509 558ZM509 606C505.835 606 502.742 605.062 500.111 603.304C497.48 601.545 495.429 599.047 494.218 596.123C493.007 593.199 492.69 589.982 493.307 586.879C493.925 583.775 495.449 580.924 497.686 578.686C499.924 576.449 502.775 574.925 505.879 574.307C508.982 573.69 512.199 574.007 515.123 575.218C518.047 576.429 520.545 578.48 522.304 581.111C524.062 583.742 525 586.835 525 590C524.995 594.242 523.308 598.309 520.308 601.308C517.309 604.308 513.242 605.995 509 606Z" fill="#BC6E44"/>
<path d="M589 582C584.253 582 579.613 583.408 575.666 586.045C571.72 588.682 568.643 592.43 566.827 596.816C565.01 601.201 564.535 606.027 565.461 610.682C566.387 615.338 568.673 619.614 572.029 622.971C575.386 626.327 579.662 628.613 584.318 629.539C588.973 630.465 593.799 629.99 598.184 628.173C602.57 626.357 606.318 623.28 608.955 619.334C611.592 615.387 613 610.747 613 606C612.993 599.637 610.462 593.537 605.963 589.037C601.463 584.538 595.363 582.007 589 582ZM589 614C587.418 614 585.871 613.531 584.555 612.652C583.24 611.773 582.214 610.523 581.609 609.061C581.003 607.6 580.845 605.991 581.154 604.439C581.462 602.887 582.224 601.462 583.343 600.343C584.462 599.224 585.887 598.462 587.439 598.154C588.991 597.845 590.6 598.003 592.061 598.609C593.523 599.214 594.773 600.24 595.652 601.555C596.531 602.871 597 604.418 597 606C596.998 608.121 596.154 610.154 594.654 611.654C593.154 613.154 591.121 613.998 589 614Z" fill="#BC6E44"/>
</svg>
